<svg width="130" height="24" viewBox="0 0 130 24" fill="none" xmlns="http://www.w3.org/2000/svg">
<path d="M47.377 17H45.4561L41.3408 11.9346V17H39.707V7.00586H41.3408V11.8457L45.3877 7.00586H47.1787L43.1455 11.832L47.377 17ZM55.2383 13.2061C55.2383 14.4411 54.9215 15.4049 54.2881 16.0977C53.6546 16.7904 52.7728 17.1367 51.6426 17.1367C50.9362 17.1367 50.3118 16.9772 49.7695 16.6582C49.2272 16.3392 48.8102 15.8812 48.5186 15.2842C48.2269 14.6872 48.0811 13.9945 48.0811 13.2061C48.0811 11.9801 48.3955 11.0231 49.0244 10.335C49.6533 9.64681 50.5397 9.30273 51.6836 9.30273C52.7773 9.30273 53.6432 9.65592 54.2812 10.3623C54.9193 11.0641 55.2383 12.012 55.2383 13.2061ZM49.7354 13.2061C49.7354 14.9515 50.3802 15.8242 51.6699 15.8242C52.946 15.8242 53.584 14.9515 53.584 13.2061C53.584 11.4788 52.9414 10.6152 51.6562 10.6152C50.9818 10.6152 50.4919 10.8385 50.1865 11.2852C49.8857 11.7318 49.7354 12.3721 49.7354 13.2061ZM60.9258 17.1367C59.9688 17.1367 59.2259 16.7926 58.6973 16.1045H58.6016C58.6654 16.7425 58.6973 17.1299 58.6973 17.2666V20.3633H57.0908V9.43945H58.3896C58.4261 9.58073 58.5013 9.91797 58.6152 10.4512H58.6973C59.1986 9.68555 59.9505 9.30273 60.9531 9.30273C61.8965 9.30273 62.6302 9.64453 63.1543 10.3281C63.6829 11.0117 63.9473 11.971 63.9473 13.2061C63.9473 14.4411 63.6784 15.4049 63.1406 16.0977C62.6074 16.7904 61.8691 17.1367 60.9258 17.1367ZM60.5361 10.6152C59.8981 10.6152 59.431 10.8021 59.1348 11.1758C58.8431 11.5495 58.6973 12.1465 58.6973 12.9668V13.2061C58.6973 14.1266 58.8431 14.7943 59.1348 15.209C59.4264 15.6191 59.9027 15.8242 60.5635 15.8242C61.1195 15.8242 61.5479 15.5964 61.8486 15.1406C62.1494 14.6849 62.2998 14.0355 62.2998 13.1924C62.2998 12.3447 62.1494 11.7044 61.8486 11.2715C61.5524 10.834 61.1149 10.6152 60.5361 10.6152ZM67.4814 12.4609C68.2152 12.4609 68.7552 12.3812 69.1016 12.2217C69.4479 12.0576 69.6211 11.807 69.6211 11.4697C69.6211 10.8545 69.0742 10.5469 67.9805 10.5469C67.2513 10.5469 66.5062 10.7109 65.7451 11.0391L65.2256 9.84277C66.1051 9.48275 67.0758 9.30273 68.1377 9.30273C69.0765 9.30273 69.8057 9.47591 70.3252 9.82227C70.8447 10.1641 71.1045 10.6562 71.1045 11.2988C71.1045 12.1465 70.6191 12.7025 69.6484 12.9668V13.0215C70.2546 13.1855 70.6875 13.4202 70.9473 13.7256C71.2116 14.0309 71.3438 14.4092 71.3438 14.8604C71.3438 15.5531 71.0384 16.1068 70.4277 16.5215C69.8216 16.9316 68.974 17.1367 67.8848 17.1367C66.6953 17.1367 65.7861 16.9795 65.1572 16.665V15.2773C65.9912 15.6693 66.8548 15.8652 67.748 15.8652C68.3906 15.8652 68.8851 15.7764 69.2314 15.5986C69.5824 15.4163 69.7578 15.1406 69.7578 14.7715C69.7578 14.3932 69.5824 14.1152 69.2314 13.9375C68.8805 13.7598 68.3382 13.6709 67.6045 13.6709H66.6816V12.4609H67.4814ZM74.625 9.43945V13.3154C74.625 13.7666 74.5885 14.4297 74.5156 15.3047L78.3096 9.43945H80.2715V17H78.7266V13.1924C78.7266 12.9827 78.738 12.6432 78.7607 12.1738C78.7881 11.7044 78.8109 11.3626 78.8291 11.1484L75.0488 17H73.0869V9.43945H74.625ZM84.168 9.43945V12.4746H87.7295V9.43945H89.3359V17H87.7295V13.7393H84.168V17H82.5615V9.43945H84.168ZM96.3701 17L96.0488 15.9473H95.9941C95.6296 16.4076 95.2627 16.722 94.8936 16.8906C94.5244 17.0547 94.0505 17.1367 93.4717 17.1367C92.7288 17.1367 92.1478 16.9362 91.7285 16.5352C91.3138 16.1341 91.1064 15.5667 91.1064 14.833C91.1064 14.0537 91.3958 13.4658 91.9746 13.0693C92.5534 12.6729 93.4352 12.4564 94.6201 12.4199L95.9258 12.3789V11.9756C95.9258 11.4925 95.8118 11.1325 95.584 10.8955C95.3607 10.654 95.012 10.5332 94.5381 10.5332C94.1507 10.5332 93.7793 10.5902 93.4238 10.7041C93.0684 10.818 92.7266 10.9525 92.3984 11.1074L91.8789 9.95898C92.2891 9.74479 92.738 9.58301 93.2256 9.47363C93.7132 9.3597 94.1735 9.30273 94.6064 9.30273C95.568 9.30273 96.2926 9.51237 96.7803 9.93164C97.2725 10.3509 97.5186 11.0094 97.5186 11.9072V17H96.3701ZM93.9775 15.9062C94.5609 15.9062 95.028 15.7445 95.3789 15.4209C95.7344 15.0928 95.9121 14.6348 95.9121 14.0469V13.3906L94.9414 13.4316C94.1849 13.459 93.6335 13.5866 93.2871 13.8145C92.9453 14.0378 92.7744 14.3818 92.7744 14.8467C92.7744 15.1839 92.8747 15.446 93.0752 15.6328C93.2757 15.8151 93.5765 15.9062 93.9775 15.9062Z" fill="#1D1D1B"/>
<g clip-path="url(#clip0_1_52)">
<path d="M23.2961 1.72754H18.9748C18.1498 1.72754 17.328 2.34939 17.1038 3.14326L15.9365 7.27481C15.8029 7.23764 15.6625 7.21615 15.5162 7.21615H1.55459C1.1103 7.21615 0.68845 7.40047 0.397235 7.72181C0.106019 8.04306 -0.0358819 8.48096 0.00775824 8.92309L0.658888 15.5234C0.745699 16.403 1.50607 17.092 2.39004 17.092H13.2263C14.0547 17.092 14.873 16.4656 15.0892 15.666L16.4466 10.6465L18.4585 3.52607C18.5131 3.33246 18.7737 3.13538 18.9748 3.13538H23.2961C23.6848 3.13538 24 2.82033 24 2.43151C24 2.04269 23.6848 1.72754 23.2961 1.72754ZM13.7303 15.2986C13.6787 15.4897 13.4242 15.6843 13.2263 15.6843H2.38995C2.23547 15.6843 2.07499 15.5389 2.05978 15.3851L1.40865 8.78485C1.40387 8.73595 1.41475 8.69522 1.44037 8.66707C1.46599 8.63882 1.50541 8.6239 1.5545 8.6239H15.5161C15.523 8.6239 15.529 8.62418 15.5343 8.62455C15.5333 8.62981 15.5319 8.63563 15.5302 8.6422L13.7303 15.2986Z" fill="#000002"/>
<path d="M4.4443 17.8937C3.23711 17.8937 2.25488 18.8758 2.25488 20.083C2.25488 21.2902 3.23702 22.2723 4.4443 22.2723C5.65149 22.2723 6.63363 21.2902 6.63363 20.083C6.63363 18.8758 5.65159 17.8937 4.4443 17.8937ZM4.4443 20.8646C4.01334 20.8646 3.66263 20.514 3.66263 20.083C3.66263 19.652 4.01325 19.3014 4.4443 19.3014C4.87526 19.3014 5.22588 19.652 5.22588 20.083C5.22588 20.514 4.87535 20.8646 4.4443 20.8646Z" fill="#000002"/>
<path d="M11.3866 17.8937C10.1794 17.8937 9.19727 18.8758 9.19727 20.083C9.19727 21.2902 10.1794 22.2723 11.3866 22.2723C12.5938 22.2723 13.576 21.2902 13.576 20.083C13.576 18.8758 12.5938 17.8937 11.3866 17.8937ZM11.3866 20.8646C10.9556 20.8646 10.605 20.514 10.605 20.083C10.605 19.652 10.9556 19.3014 11.3866 19.3014C11.8175 19.3014 12.1683 19.652 12.1683 20.083C12.1683 20.514 11.8175 20.8646 11.3866 20.8646Z" fill="#000002"/>
</g>
<circle cx="121.5" cy="11.5" r="8.5" fill="#E0001B"/>
<path d="M119.572 16L122.959 8.6582H118.506V7.44531H124.43V8.40625L121.061 16H119.572Z" fill="white"/>
<defs>
<clipPath id="clip0_1_52">
<rect width="24" height="24" fill="white"/>
</clipPath>
</defs>
</svg>
