<svg width="136" height="48" viewBox="0 0 136 48" fill="none" xmlns="http://www.w3.org/2000/svg">
<path d="M0 3C0 1.34315 1.34315 0 3 0H136V48H3C1.34315 48 0 46.6569 0 45V3Z" fill="#E0001B"/>
<path d="M61.2734 30H59.0781L54.375 24.2109V30H52.5078V18.5781H54.375V24.1094L59 18.5781H61.0469L56.4375 24.0938L61.2734 30ZM68 30L67.6328 28.7969H67.5703C67.1536 29.3229 66.7344 29.6823 66.3125 29.875C65.8906 30.0625 65.349 30.1562 64.6875 30.1562C63.8385 30.1562 63.1745 29.9271 62.6953 29.4688C62.2214 29.0104 61.9844 28.362 61.9844 27.5234C61.9844 26.6328 62.3151 25.9609 62.9766 25.5078C63.638 25.0547 64.6458 24.8073 66 24.7656L67.4922 24.7188V24.2578C67.4922 23.7057 67.362 23.2943 67.1016 23.0234C66.8464 22.7474 66.4479 22.6094 65.9062 22.6094C65.4635 22.6094 65.0391 22.6745 64.6328 22.8047C64.2266 22.9349 63.8359 23.0885 63.4609 23.2656L62.8672 21.9531C63.3359 21.7083 63.849 21.5234 64.4062 21.3984C64.9635 21.2682 65.4896 21.2031 65.9844 21.2031C67.0833 21.2031 67.9115 21.4427 68.4688 21.9219C69.0312 22.401 69.3125 23.1536 69.3125 24.1797V30H68ZM65.2656 28.75C65.9323 28.75 66.4661 28.5651 66.8672 28.1953C67.2734 27.8203 67.4766 27.2969 67.4766 26.625V25.875L66.3672 25.9219C65.5026 25.9531 64.8724 26.099 64.4766 26.3594C64.0859 26.6146 63.8906 27.0078 63.8906 27.5391C63.8906 27.9245 64.0052 28.224 64.2344 28.4375C64.4635 28.6458 64.8073 28.75 65.2656 28.75ZM78.3672 21.3594V22.7969H75.5547V30H73.7109V22.7969H70.8984V21.3594H78.3672ZM85.4375 30L85.0703 28.7969H85.0078C84.5911 29.3229 84.1719 29.6823 83.75 29.875C83.3281 30.0625 82.7865 30.1562 82.125 30.1562C81.276 30.1562 80.612 29.9271 80.1328 29.4688C79.6589 29.0104 79.4219 28.362 79.4219 27.5234C79.4219 26.6328 79.7526 25.9609 80.4141 25.5078C81.0755 25.0547 82.0833 24.8073 83.4375 24.7656L84.9297 24.7188V24.2578C84.9297 23.7057 84.7995 23.2943 84.5391 23.0234C84.2839 22.7474 83.8854 22.6094 83.3438 22.6094C82.901 22.6094 82.4766 22.6745 82.0703 22.8047C81.6641 22.9349 81.2734 23.0885 80.8984 23.2656L80.3047 21.9531C80.7734 21.7083 81.2865 21.5234 81.8438 21.3984C82.401 21.2682 82.9271 21.2031 83.4219 21.2031C84.5208 21.2031 85.349 21.4427 85.9062 21.9219C86.4688 22.401 86.75 23.1536 86.75 24.1797V30H85.4375ZM82.7031 28.75C83.3698 28.75 83.9036 28.5651 84.3047 28.1953C84.7109 27.8203 84.9141 27.2969 84.9141 26.625V25.875L83.8047 25.9219C82.9401 25.9531 82.3099 26.099 81.9141 26.3594C81.5234 26.6146 81.3281 27.0078 81.3281 27.5391C81.3281 27.9245 81.4427 28.224 81.6719 28.4375C81.901 28.6458 82.2448 28.75 82.7031 28.75ZM96.4141 30H94.5625V22.7969H92.1797C92.0339 24.651 91.8359 26.099 91.5859 27.1406C91.3411 28.1823 91.0182 28.9427 90.6172 29.4219C90.2214 29.901 89.7057 30.1406 89.0703 30.1406C88.6693 30.1406 88.3333 30.0833 88.0625 29.9688V28.5312C88.2552 28.6042 88.4479 28.6406 88.6406 28.6406C89.1719 28.6406 89.5885 28.0443 89.8906 26.8516C90.1979 25.6536 90.4375 23.8229 90.6094 21.3594H96.4141V30ZM106.711 25.6641C106.711 27.0755 106.349 28.1771 105.625 28.9688C104.901 29.7604 103.893 30.1562 102.602 30.1562C101.794 30.1562 101.081 29.974 100.461 29.6094C99.8411 29.2448 99.3646 28.7214 99.0312 28.0391C98.6979 27.3568 98.5312 26.5651 98.5312 25.6641C98.5312 24.263 98.8906 23.1693 99.6094 22.3828C100.328 21.5964 101.341 21.2031 102.648 21.2031C103.898 21.2031 104.888 21.6068 105.617 22.4141C106.346 23.2161 106.711 24.2995 106.711 25.6641ZM100.422 25.6641C100.422 27.6589 101.159 28.6562 102.633 28.6562C104.091 28.6562 104.82 27.6589 104.82 25.6641C104.82 23.6901 104.086 22.7031 102.617 22.7031C101.846 22.7031 101.286 22.9583 100.938 23.4688C100.594 23.9792 100.422 24.7109 100.422 25.6641ZM114.414 21.3594V22.7969H110.664V30H108.828V21.3594H114.414Z" fill="white"/>
<path d="M16 18H35" stroke="white" stroke-width="1.5" stroke-linecap="round"/>
<path d="M16 24H35" stroke="white" stroke-width="1.5" stroke-linecap="round"/>
<path d="M16 30H28" stroke="white" stroke-width="1.5" stroke-linecap="round"/>
</svg>
