<svg width="108" height="24" viewBox="0 0 108 24" fill="none" xmlns="http://www.w3.org/2000/svg">
<path d="M44.9121 8.26367C43.9733 8.26367 43.235 8.59635 42.6973 9.26172C42.1595 9.92708 41.8906 10.8454 41.8906 12.0166C41.8906 13.2425 42.1481 14.1699 42.6631 14.7988C43.1826 15.4277 43.9323 15.7422 44.9121 15.7422C45.3359 15.7422 45.7461 15.7012 46.1426 15.6191C46.5391 15.5326 46.9515 15.4232 47.3799 15.291V16.6924C46.596 16.9886 45.7074 17.1367 44.7139 17.1367C43.251 17.1367 42.1276 16.6947 41.3438 15.8105C40.5599 14.9219 40.168 13.6527 40.168 12.0029C40.168 10.9639 40.3571 10.0547 40.7354 9.27539C41.1182 8.49609 41.6696 7.89909 42.3896 7.48438C43.1097 7.06966 43.9551 6.8623 44.9258 6.8623C45.9466 6.8623 46.89 7.0765 47.7559 7.50488L47.168 8.86523C46.8307 8.70573 46.473 8.56673 46.0947 8.44824C45.721 8.3252 45.3268 8.26367 44.9121 8.26367ZM53.1973 17.1367C52.2402 17.1367 51.4974 16.7926 50.9688 16.1045H50.873C50.9368 16.7425 50.9688 17.1299 50.9688 17.2666V20.3633H49.3623V9.43945H50.6611C50.6976 9.58073 50.7728 9.91797 50.8867 10.4512H50.9688C51.4701 9.68555 52.222 9.30273 53.2246 9.30273C54.168 9.30273 54.9017 9.64453 55.4258 10.3281C55.9544 11.0117 56.2188 11.971 56.2188 13.2061C56.2188 14.4411 55.9499 15.4049 55.4121 16.0977C54.8789 16.7904 54.1406 17.1367 53.1973 17.1367ZM52.8076 10.6152C52.1696 10.6152 51.7025 10.8021 51.4062 11.1758C51.1146 11.5495 50.9688 12.1465 50.9688 12.9668V13.2061C50.9688 14.1266 51.1146 14.7943 51.4062 15.209C51.6979 15.6191 52.1742 15.8242 52.835 15.8242C53.391 15.8242 53.8193 15.5964 54.1201 15.1406C54.4209 14.6849 54.5713 14.0355 54.5713 13.1924C54.5713 12.3447 54.4209 11.7044 54.1201 11.2715C53.8239 10.834 53.3864 10.6152 52.8076 10.6152ZM62.8154 17L62.4941 15.9473H62.4395C62.0749 16.4076 61.708 16.722 61.3389 16.8906C60.9697 17.0547 60.4958 17.1367 59.917 17.1367C59.1742 17.1367 58.5931 16.9362 58.1738 16.5352C57.7591 16.1341 57.5518 15.5667 57.5518 14.833C57.5518 14.0537 57.8411 13.4658 58.4199 13.0693C58.9987 12.6729 59.8805 12.4564 61.0654 12.4199L62.3711 12.3789V11.9756C62.3711 11.4925 62.2572 11.1325 62.0293 10.8955C61.806 10.654 61.4574 10.5332 60.9834 10.5332C60.596 10.5332 60.2246 10.5902 59.8691 10.7041C59.5137 10.818 59.1719 10.9525 58.8438 11.1074L58.3242 9.95898C58.7344 9.74479 59.1833 9.58301 59.6709 9.47363C60.1585 9.3597 60.6188 9.30273 61.0518 9.30273C62.0133 9.30273 62.738 9.51237 63.2256 9.93164C63.7178 10.3509 63.9639 11.0094 63.9639 11.9072V17H62.8154ZM60.4229 15.9062C61.0062 15.9062 61.4733 15.7445 61.8242 15.4209C62.1797 15.0928 62.3574 14.6348 62.3574 14.0469V13.3906L61.3867 13.4316C60.6302 13.459 60.0788 13.5866 59.7324 13.8145C59.3906 14.0378 59.2197 14.3818 59.2197 14.8467C59.2197 15.1839 59.32 15.446 59.5205 15.6328C59.721 15.8151 60.0218 15.9062 60.4229 15.9062ZM72.7686 11.374C72.7686 12.2673 72.2467 12.8073 71.2031 12.9941V13.0488C71.7865 13.1172 72.2331 13.3018 72.543 13.6025C72.8529 13.9033 73.0078 14.293 73.0078 14.7715C73.0078 15.487 72.7344 16.0384 72.1875 16.4258C71.6452 16.8086 70.8545 17 69.8154 17H66.2061V9.43945H69.8018C71.7796 9.43945 72.7686 10.0843 72.7686 11.374ZM71.3604 14.6758C71.3604 14.3112 71.2191 14.0537 70.9365 13.9033C70.654 13.7484 70.2301 13.6709 69.665 13.6709H67.8125V15.8105H69.7061C70.8089 15.8105 71.3604 15.4323 71.3604 14.6758ZM71.1621 11.5107C71.1621 11.21 71.0436 10.9935 70.8066 10.8613C70.5742 10.7246 70.2256 10.6562 69.7607 10.6562H67.8125V12.4746H69.5215C70.0592 12.4746 70.4671 12.4062 70.7451 12.2695C71.0231 12.1283 71.1621 11.8753 71.1621 11.5107ZM76.2754 9.43945V12.4746H79.8369V9.43945H81.4434V17H79.8369V13.7393H76.2754V17H74.6689V9.43945H76.2754ZM85.2852 9.43945V13.3154C85.2852 13.7666 85.2487 14.4297 85.1758 15.3047L88.9697 9.43945H90.9316V17H89.3867V13.1924C89.3867 12.9827 89.3981 12.6432 89.4209 12.1738C89.4482 11.7044 89.471 11.3626 89.4893 11.1484L85.709 17H83.7471V9.43945H85.2852ZM98.9023 9.43945V10.6973H96.4414V17H94.8281V10.6973H92.3672V9.43945H98.9023ZM101.965 12.4609H103.858C105.968 12.4609 107.023 13.1901 107.023 14.6484C107.023 15.4186 106.755 16.0042 106.217 16.4053C105.679 16.8018 104.893 17 103.858 17H100.358V9.43945H101.965V12.4609ZM105.41 14.6895C105.41 14.3112 105.267 14.0469 104.979 13.8965C104.692 13.7461 104.287 13.6709 103.763 13.6709H101.965V15.8105H103.79C104.319 15.8105 104.72 15.7148 104.993 15.5234C105.271 15.332 105.41 15.054 105.41 14.6895Z" fill="#1D1D1B"/>
<path d="M25.0137 9.29154L23.3439 9.50919V8.06396C25.216 7.69901 26.6334 6.04665 26.6334 4.06949C26.6334 1.82553 24.8077 0 22.5638 0C20.3199 0 18.4943 1.82563 18.4943 4.06949C18.4943 6.0467 19.9117 7.69911 21.7837 8.06396V9.71258L4.84966 11.9201V10.7508C6.72169 10.3858 8.13898 8.73344 8.13898 6.75633C8.13898 4.51242 6.3134 2.68684 4.06949 2.68684C1.82558 2.68684 0 4.51242 0 6.75633C0 8.73349 1.41734 10.3859 3.28932 10.7508V12.1235L1.47388 12.3601C1.04661 12.4158 0.745421 12.8073 0.801132 13.2345C0.85237 13.6276 1.18778 13.9139 1.57376 13.9139C1.60736 13.9139 1.64138 13.9117 1.67561 13.9073L12.2286 12.5316L9.94047 22.4397H9.22912C8.79825 22.4397 8.44895 22.789 8.44895 23.2198C8.44895 23.6507 8.79825 24 9.22912 24H17.408C17.8389 24 18.1882 23.6507 18.1882 23.2198C18.1882 22.789 17.8389 22.4397 17.408 22.4397H16.6885L14.2029 12.2742L25.2153 10.8386C25.6425 10.783 25.9438 10.3914 25.8881 9.96419C25.8323 9.53702 25.4407 9.23573 25.0137 9.29154ZM1.56029 6.75633C1.56029 5.37275 2.68591 4.24713 4.06949 4.24713C5.45307 4.24713 6.57869 5.3728 6.57869 6.75633C6.57869 8.13986 5.45307 9.26553 4.06949 9.26553C2.68591 9.26553 1.56029 8.13986 1.56029 6.75633ZM15.0824 22.4397H11.5418L13.2615 14.9933L15.0824 22.4397ZM20.0545 4.06944C20.0545 2.68586 21.1802 1.56023 22.5637 1.56023C23.9474 1.56023 25.073 2.68591 25.073 4.06944C25.073 5.45307 23.9473 6.57869 22.5637 6.57869C21.1802 6.57869 20.0545 5.45307 20.0545 4.06944Z" fill="#1D1D1B"/>
</svg>
