<svg width="150" height="24" viewBox="0 0 150 24" fill="none" xmlns="http://www.w3.org/2000/svg">
<g clip-path="url(#clip0_1_44)">
<path d="M23.9887 8.53373C23.8982 6.84218 23.1821 5.25383 21.9722 4.06124C20.7442 2.85075 19.1405 2.18408 17.4568 2.18408C14.9354 2.18408 13.1501 4.13162 12.1911 5.17797C12.1365 5.23746 12.0779 5.30139 12.0206 5.36319C11.9899 5.32834 11.9594 5.29359 11.9303 5.26047C11.0537 4.26187 9.22936 2.18408 6.54364 2.18408C4.85988 2.18408 3.25632 2.85075 2.02831 4.06124C0.818294 5.25383 0.102145 6.84218 0.0116514 8.53373C-0.0782643 10.2153 0.349269 11.6744 1.39755 13.265C2.33704 14.6908 4.78364 16.9452 6.59322 18.4424C8.45314 19.9813 10.9029 21.8159 12.0105 21.8159C13.1355 21.8159 15.5766 19.9852 17.4262 18.4495C19.2218 16.9588 21.6549 14.7062 22.6031 13.2644C23.3087 12.1916 24.1039 10.6843 23.9887 8.53373ZM21.3967 12.471C20.7077 13.5189 18.7655 15.4548 16.5639 17.2887C13.9387 19.4753 12.3844 20.3372 12.0117 20.3714C11.6395 20.3326 10.0814 19.4622 7.44337 17.2714C5.22879 15.4323 3.28376 13.5029 2.60332 12.4704C1.73584 11.1542 1.38128 9.96391 1.45358 8.61075C1.60058 5.86331 3.884 3.62803 6.54354 3.62803C8.5755 3.62803 10.0519 5.30967 10.8452 6.21296C11.3115 6.74418 11.5684 7.03674 12.0003 7.03674C12.4461 7.03674 12.7337 6.723 13.2556 6.15356C14.1215 5.20887 15.5706 3.62803 17.4568 3.62803C20.1164 3.62803 22.3997 5.86331 22.5468 8.61075C22.62 9.97922 22.276 11.1338 21.3967 12.471Z" fill="#1D1D1B"/>
</g>
<circle cx="141.5" cy="11.5" r="8.5" fill="#E0001B"/>
<path d="M144.084 9.40234C144.084 9.94531 143.926 10.3984 143.609 10.7617C143.293 11.1211 142.848 11.3633 142.273 11.4883V11.5352C142.961 11.6211 143.477 11.8359 143.82 12.1797C144.164 12.5195 144.336 12.9727 144.336 13.5391C144.336 14.3633 144.045 15 143.463 15.4492C142.881 15.8945 142.053 16.1172 140.979 16.1172C140.029 16.1172 139.229 15.9629 138.576 15.6543V14.4297C138.939 14.6094 139.324 14.748 139.73 14.8457C140.137 14.9434 140.527 14.9922 140.902 14.9922C141.566 14.9922 142.062 14.8691 142.391 14.623C142.719 14.377 142.883 13.9961 142.883 13.4805C142.883 13.0234 142.701 12.6875 142.338 12.4727C141.975 12.2578 141.404 12.1504 140.627 12.1504H139.883V11.0312H140.639C142.006 11.0312 142.689 10.5586 142.689 9.61328C142.689 9.24609 142.57 8.96289 142.332 8.76367C142.094 8.56445 141.742 8.46484 141.277 8.46484C140.953 8.46484 140.641 8.51172 140.34 8.60547C140.039 8.69531 139.684 8.87305 139.273 9.13867L138.6 8.17773C139.385 7.59961 140.297 7.31055 141.336 7.31055C142.199 7.31055 142.873 7.49609 143.357 7.86719C143.842 8.23828 144.084 8.75 144.084 9.40234Z" fill="white"/>
<path d="M40.5605 7.00586H42.0576V12.2012C42.0576 12.7435 42.0439 13.2926 42.0166 13.8486C41.9893 14.4001 41.9688 14.7738 41.9551 14.9697H42.0166L47.123 7.00586H49.0303V17H47.5264V11.8457C47.5264 11.0573 47.5697 10.1003 47.6562 8.97461H47.6016L42.4746 17H40.5605V7.00586ZM53.1455 12.4609C53.8792 12.4609 54.4193 12.3812 54.7656 12.2217C55.112 12.0576 55.2852 11.807 55.2852 11.4697C55.2852 10.8545 54.7383 10.5469 53.6445 10.5469C52.9154 10.5469 52.1702 10.7109 51.4092 11.0391L50.8896 9.84277C51.7692 9.48275 52.7399 9.30273 53.8018 9.30273C54.7406 9.30273 55.4697 9.47591 55.9893 9.82227C56.5088 10.1641 56.7686 10.6562 56.7686 11.2988C56.7686 12.1465 56.2832 12.7025 55.3125 12.9668V13.0215C55.9186 13.1855 56.3516 13.4202 56.6113 13.7256C56.8757 14.0309 57.0078 14.4092 57.0078 14.8604C57.0078 15.5531 56.7025 16.1068 56.0918 16.5215C55.4857 16.9316 54.638 17.1367 53.5488 17.1367C52.3594 17.1367 51.4502 16.9795 50.8213 16.665V15.2773C51.6553 15.6693 52.5189 15.8652 53.4121 15.8652C54.0547 15.8652 54.5492 15.7764 54.8955 15.5986C55.2464 15.4163 55.4219 15.1406 55.4219 14.7715C55.4219 14.3932 55.2464 14.1152 54.8955 13.9375C54.5446 13.7598 54.0023 13.6709 53.2686 13.6709H52.3457V12.4609H53.1455ZM58.3135 12.4609C58.3135 10.7747 58.5983 9.47819 59.168 8.57129C59.7422 7.66439 60.6536 7.08105 61.9023 6.82129C62.8457 6.62988 63.9326 6.44303 65.1631 6.26074L65.3887 7.67578C63.8939 7.90365 62.8001 8.08138 62.1074 8.20898C61.3919 8.34115 60.8747 8.63509 60.5557 9.09082C60.2412 9.54655 60.0589 10.2324 60.0088 11.1484H60.1113C60.3711 10.7702 60.7106 10.4785 61.1299 10.2734C61.5492 10.0638 61.998 9.95898 62.4766 9.95898C63.4062 9.95898 64.1309 10.2529 64.6504 10.8408C65.1699 11.4287 65.4297 12.2536 65.4297 13.3154C65.4297 14.5322 65.113 15.4733 64.4795 16.1387C63.8506 16.804 62.9779 17.1367 61.8613 17.1367C60.7539 17.1367 59.8857 16.7266 59.2568 15.9062C58.6279 15.0859 58.3135 13.9375 58.3135 12.4609ZM61.9707 15.8242C63.1647 15.8242 63.7617 15.0404 63.7617 13.4727C63.7617 11.9596 63.2217 11.2031 62.1416 11.2031C61.8454 11.2031 61.5583 11.2669 61.2803 11.3945C61.0023 11.5221 60.7448 11.6908 60.5078 11.9004C60.2754 12.11 60.0954 12.3265 59.9678 12.5498C59.9678 13.6253 60.1387 14.4411 60.4805 14.9971C60.8223 15.5485 61.319 15.8242 61.9707 15.8242ZM71.1172 17.1367C70.1602 17.1367 69.4173 16.7926 68.8887 16.1045H68.793C68.8568 16.7425 68.8887 17.1299 68.8887 17.2666V20.3633H67.2822V9.43945H68.5811C68.6175 9.58073 68.6927 9.91797 68.8066 10.4512H68.8887C69.39 9.68555 70.1419 9.30273 71.1445 9.30273C72.0879 9.30273 72.8216 9.64453 73.3457 10.3281C73.8743 11.0117 74.1387 11.971 74.1387 13.2061C74.1387 14.4411 73.8698 15.4049 73.332 16.0977C72.7988 16.7904 72.0605 17.1367 71.1172 17.1367ZM70.7275 10.6152C70.0895 10.6152 69.6224 10.8021 69.3262 11.1758C69.0345 11.5495 68.8887 12.1465 68.8887 12.9668V13.2061C68.8887 14.1266 69.0345 14.7943 69.3262 15.209C69.6178 15.6191 70.0941 15.8242 70.7549 15.8242C71.3109 15.8242 71.7393 15.5964 72.04 15.1406C72.3408 14.6849 72.4912 14.0355 72.4912 13.1924C72.4912 12.3447 72.3408 11.7044 72.04 11.2715C71.7438 10.834 71.3063 10.6152 70.7275 10.6152ZM80.7354 17L80.4141 15.9473H80.3594C79.9948 16.4076 79.6279 16.722 79.2588 16.8906C78.8896 17.0547 78.4157 17.1367 77.8369 17.1367C77.0941 17.1367 76.513 16.9362 76.0938 16.5352C75.679 16.1341 75.4717 15.5667 75.4717 14.833C75.4717 14.0537 75.7611 13.4658 76.3398 13.0693C76.9186 12.6729 77.8005 12.4564 78.9854 12.4199L80.291 12.3789V11.9756C80.291 11.4925 80.1771 11.1325 79.9492 10.8955C79.7259 10.654 79.3773 10.5332 78.9033 10.5332C78.516 10.5332 78.1445 10.5902 77.7891 10.7041C77.4336 10.818 77.0918 10.9525 76.7637 11.1074L76.2441 9.95898C76.6543 9.74479 77.1032 9.58301 77.5908 9.47363C78.0785 9.3597 78.5387 9.30273 78.9717 9.30273C79.9333 9.30273 80.6579 9.51237 81.1455 9.93164C81.6377 10.3509 81.8838 11.0094 81.8838 11.9072V17H80.7354ZM78.3428 15.9062C78.9261 15.9062 79.3932 15.7445 79.7441 15.4209C80.0996 15.0928 80.2773 14.6348 80.2773 14.0469V13.3906L79.3066 13.4316C78.5501 13.459 77.9987 13.5866 77.6523 13.8145C77.3105 14.0378 77.1396 14.3818 77.1396 14.8467C77.1396 15.1839 77.2399 15.446 77.4404 15.6328C77.641 15.8151 77.9417 15.9062 78.3428 15.9062ZM85.7324 9.43945V12.4746H89.2939V9.43945H90.9004V17H89.2939V13.7393H85.7324V17H84.126V9.43945H85.7324ZM94.8105 9.43945V12.4746H98.3721V9.43945H99.9785V17H98.3721V13.7393H94.8105V17H93.2041V9.43945H94.8105ZM108.988 13.2061C108.988 14.4411 108.672 15.4049 108.038 16.0977C107.405 16.7904 106.523 17.1367 105.393 17.1367C104.686 17.1367 104.062 16.9772 103.52 16.6582C102.977 16.3392 102.56 15.8812 102.269 15.2842C101.977 14.6872 101.831 13.9945 101.831 13.2061C101.831 11.9801 102.146 11.0231 102.774 10.335C103.403 9.64681 104.29 9.30273 105.434 9.30273C106.527 9.30273 107.393 9.65592 108.031 10.3623C108.669 11.0641 108.988 12.012 108.988 13.2061ZM103.485 13.2061C103.485 14.9515 104.13 15.8242 105.42 15.8242C106.696 15.8242 107.334 14.9515 107.334 13.2061C107.334 11.4788 106.691 10.6152 105.406 10.6152C104.732 10.6152 104.242 10.8385 103.937 11.2852C103.636 11.7318 103.485 12.3721 103.485 13.2061ZM114.143 17.1367C112.967 17.1367 112.046 16.7949 111.381 16.1113C110.72 15.4232 110.39 14.4775 110.39 13.2744C110.39 12.0394 110.697 11.0687 111.312 10.3623C111.928 9.65592 112.773 9.30273 113.849 9.30273C114.847 9.30273 115.635 9.60579 116.214 10.2119C116.793 10.818 117.082 11.652 117.082 12.7139V13.582H112.044C112.067 14.3158 112.265 14.8809 112.639 15.2773C113.012 15.6693 113.539 15.8652 114.218 15.8652C114.664 15.8652 115.079 15.8242 115.462 15.7422C115.849 15.6556 116.264 15.5143 116.706 15.3184V16.624C116.314 16.8109 115.918 16.943 115.517 17.0205C115.116 17.098 114.658 17.1367 114.143 17.1367ZM113.849 10.5195C113.338 10.5195 112.928 10.6813 112.618 11.0049C112.313 11.3285 112.131 11.8001 112.071 12.4199H115.503C115.494 11.7956 115.343 11.3239 115.052 11.0049C114.76 10.6813 114.359 10.5195 113.849 10.5195Z" fill="#1D1D1B"/>
<defs>
<clipPath id="clip0_1_44">
<rect width="24" height="24" fill="white"/>
</clipPath>
</defs>
</svg>
